<svg xmlns="http://www.w3.org/2000/svg" xmlns:xlink="http://www.w3.org/1999/xlink" width="85" height="74" viewBox="0 0 85 74">
  <defs>
    <style>
      .cls-1 {
        fill-rule: evenodd;
        filter: url(#filter);
      }
    </style>
    <filter id="filter" x="199" y="2235" width="85" height="74" filterUnits="userSpaceOnUse">
      <feFlood result="flood" flood-color="#008bb4"/>
      <feComposite result="composite" operator="in" in2="SourceGraphic"/>
      <feBlend result="blend" in2="SourceGraphic"/>
    </filter>
  </defs>
  <path class="cls-1" d="M283.83,2303.27l-3.369-11.63a1.744,1.744,0,0,0-.4-0.64,19.607,19.607,0,0,0-13.718-12.83l-0.963-.16a4.047,4.047,0,0,0-4.091,1.28c-3.53,3.98-8.022,4.3-12.756,4.3s-9.225-.32-12.755-4.3a4.047,4.047,0,0,0-4.091-1.28l-0.963.24a19.9,19.9,0,0,0-11.712,8.53H208.9a0.16,0.16,0,0,1-.161-0.08,1.815,1.815,0,0,1-.08-0.32l2.086-7.41c1.845-5.82,5.375-7.57,12.274-9.32a1.555,1.555,0,0,0,.722-0.4,9.09,9.09,0,0,0,1.845,1.2,1.2,1.2,0,0,0,.722.16,1.692,1.692,0,0,0,1.444-.88,1.59,1.59,0,0,0-.722-2.15c-3.69-1.91-6.338-7.33-6.338-12.9a9.083,9.083,0,0,1,9.065-9.01,10.213,10.213,0,0,1,2.728.4,18.1,18.1,0,0,0-1.364,6.93c0,13.62,8.263,25.09,18.05,25.09,9.627,0,18.13-11.7,18.13-25.09a18.122,18.122,0,0,0-33.292-9.79,12.831,12.831,0,0,0-4.252-.72,12.3,12.3,0,0,0-10.348,5.73,1.455,1.455,0,0,0-.482-0.31,7.7,7.7,0,0,0-3.77-.88,7.93,7.93,0,0,0-8.1,7.96,13.631,13.631,0,0,0,1.845,6.85c-3.691.96-6.98,2.39-8.5,7.25l-1.283,4.62a2.61,2.61,0,0,0,.4,2.31,2.7,2.7,0,0,0,2.246,1.12h6.177c-0.08.32-.241,0.64-0.321,0.95l-2.086,7.49a3.232,3.232,0,0,0,.642,3.03,3.3,3.3,0,0,0,2.728,1.35h8.5a13.794,13.794,0,0,0-.561,1.68l-3.37,11.7a4.556,4.556,0,0,0,.8,3.91,4.507,4.507,0,0,0,3.529,1.75H279.5A4.543,4.543,0,0,0,283.83,2303.27Zm-47.892-56.96a1.1,1.1,0,0,0,.24-0.32c0.08-.08.08-0.24,0.161-0.32a14.659,14.659,0,0,1,12.835-7.48,14.946,14.946,0,0,1,14.2,10.35,7.588,7.588,0,0,1-7.541-2.94,1.572,1.572,0,0,0-2.246-.32,1.332,1.332,0,0,0-.562.79c-0.08.08-.08,0.16-0.16,0.24-2.247,4.54-9.788,6.45-18.371,4.78A16.466,16.466,0,0,1,235.938,2246.31Zm4.492,8.52c6.418,0,11.712-1.99,14.44-5.73a10.78,10.78,0,0,0,7.14,2.71,8.579,8.579,0,0,0,2-.24,7.556,7.556,0,0,1,.081,1.35c0,11.71-6.98,21.99-14.922,21.99-7.621,0-14.279-9.48-14.841-20.63A32.591,32.591,0,0,0,240.43,2254.83Zm-38.025,19.12,1.123-3.98c0.962-3.27,2.968-4.22,6.979-5.18a1.617,1.617,0,0,0,.642-0.32,6.293,6.293,0,0,0,1.2.8,1.2,1.2,0,0,0,.722.16,1.69,1.69,0,0,0,1.444-.88,1.635,1.635,0,0,0-.642-2.15c-2.085-1.11-3.61-4.22-3.61-7.41a4.851,4.851,0,0,1,4.894-4.86,4.656,4.656,0,0,1,2.326.56,1.9,1.9,0,0,0,.642.16,11.99,11.99,0,0,0-.642,3.83,20.227,20.227,0,0,0,3.931,12.1c-4.813,1.2-9.065,2.79-11.873,7.17h-7.139Zm78.136,31.39a1.448,1.448,0,0,1-1.043.47H217.807a1.268,1.268,0,0,1-1.283-1.59l3.369-11.63a16.323,16.323,0,0,1,11.632-11.23l0.963-.24a1.024,1.024,0,0,1,.882.32c4.413,5.02,9.868,5.42,15.162,5.42s10.75-.4,15.162-5.42a1.035,1.035,0,0,1,.963-0.32l0.963,0.24a16.461,16.461,0,0,1,11.632,11.23l1.444,4.94a1.291,1.291,0,0,0,.321.56l1.765,6.05A1.573,1.573,0,0,1,280.541,2305.34Z" transform="translate(-199 -2235)"/>
</svg>
