<svg xmlns="http://www.w3.org/2000/svg" width="17" height="12.063" viewBox="0 0 17 12.063">
  <defs>
    <style>
      .cls-1 {
        fill: #b2b2b2;
        fill-rule: evenodd;
      }
    </style>
  </defs>
  <path id="youtube" class="cls-1" d="M763.688,55.471h-0.007s-3.573,0-5.954.176a2.414,2.414,0,0,0-1.7.726,3.724,3.724,0,0,0-.676,1.7,25.952,25.952,0,0,0-.171,2.771v1.3a25.9,25.9,0,0,0,.171,2.772,3.734,3.734,0,0,0,.676,1.7,2.88,2.88,0,0,0,1.876.732c1.362,0.131,5.786.173,5.786,0.173h0s3.576-.007,5.957-0.18a2.44,2.44,0,0,0,1.706-.725,3.734,3.734,0,0,0,.676-1.7,26.05,26.05,0,0,0,.17-2.772v-1.3a26.1,26.1,0,0,0-.17-2.771,3.724,3.724,0,0,0-.676-1.7,2.416,2.416,0,0,0-1.706-.726c-2.381-.176-5.953-0.176-5.953-0.176m-1.706,3.685,4.447,2.259-4.447,2.428V59.155Z" transform="translate(-755.188 -55.469)"/>
</svg>
