<svg xmlns="http://www.w3.org/2000/svg" width="12" height="12" viewBox="0 0 12 12">
  <defs>
    <style>
      .cls-1 {
        fill: #b2b2b2;
        fill-rule: evenodd;
      }
    </style>
  </defs>
  <path id="instagram_" data-name="instagram " class="cls-1" d="M728.04,68H717.96A0.961,0.961,0,0,1,717,67.04V56.961A0.961,0.961,0,0,1,717.96,56h10.08a0.961,0.961,0,0,1,.96.961V67.04A0.961,0.961,0,0,1,728.04,68ZM723,59.841A2.16,2.16,0,1,0,725.16,62,2.16,2.16,0,0,0,723,59.841Zm4.637-1.75a0.729,0.729,0,0,0-.729-0.727H726.18a0.729,0.729,0,0,0-.729.727v0.729a0.727,0.727,0,0,0,.729.729h0.728a0.727,0.727,0,0,0,.729-0.729V58.091Zm0,2.819h-0.818A4.992,4.992,0,0,1,726.84,62a3.84,3.84,0,1,1-7.68,0,4.992,4.992,0,0,1,.022-1.09h-0.818v5.18a0.6,0.6,0,0,0,.545.546h8.182a0.6,0.6,0,0,0,.545-0.546V60.91Z" transform="translate(-717 -56)"/>
</svg>
