<svg xmlns="http://www.w3.org/2000/svg" xmlns:xlink="http://www.w3.org/1999/xlink" width="69" height="74" viewBox="0 0 69 74">
  <defs>
    <style>
      .cls-1 {
        fill-rule: evenodd;
        filter: url(#filter);
      }
    </style>
    <filter id="filter" x="831" y="9849" width="69" height="74" filterUnits="userSpaceOnUse">
      <feFlood result="flood" flood-color="#008bb4"/>
      <feComposite result="composite" operator="in" in2="SourceGraphic"/>
      <feBlend result="blend" in2="SourceGraphic"/>
    </filter>
  </defs>
  <path class="cls-1" d="M863.356,9881.2a1.627,1.627,0,0,0-.1-0.32,1.476,1.476,0,0,0-.16-0.3,1.43,1.43,0,0,0-.215-0.26,1.74,1.74,0,0,0-1.564-.48c-0.11.03-.218,0.06-0.323,0.1a1.675,1.675,0,0,0-.3.16,1.542,1.542,0,0,0-.264.22,1.478,1.478,0,0,0-.216.26,1.528,1.528,0,0,0-.16.3,1.627,1.627,0,0,0-.1.32,1.7,1.7,0,0,0-.033.34,1.732,1.732,0,0,0,.507,1.22,1.516,1.516,0,0,0,.263.21,1.229,1.229,0,0,0,.3.16,1.277,1.277,0,0,0,.324.1,1.97,1.97,0,0,0,.34.04,1.738,1.738,0,0,0,1.732-1.73A1.706,1.706,0,0,0,863.356,9881.2Zm-16.262.59a1.5,1.5,0,0,0-.1-0.32,1.794,1.794,0,0,0-.159-0.3,1.878,1.878,0,0,0-.215-0.26,2.269,2.269,0,0,0-.263-0.22,1.617,1.617,0,0,0-.3-0.15,1.253,1.253,0,0,0-.324-0.1,1.537,1.537,0,0,0-.675,0,1.291,1.291,0,0,0-.326.1,1.663,1.663,0,0,0-.3.15,2.269,2.269,0,0,0-.263.22,2.136,2.136,0,0,0-.217.26,1.794,1.794,0,0,0-.159.3,1.7,1.7,0,0,0-.1.32,1.768,1.768,0,0,0,0,.68,1.7,1.7,0,0,0,.1.32,1.474,1.474,0,0,0,.159.3,2.049,2.049,0,0,0,.217.26,2.269,2.269,0,0,0,.263.22,2.819,2.819,0,0,0,.3.16,1.854,1.854,0,0,0,.326.09,1.444,1.444,0,0,0,.675,0,1.787,1.787,0,0,0,.324-0.09,2.665,2.665,0,0,0,.3-0.16,2.269,2.269,0,0,0,.263-0.22,1.878,1.878,0,0,0,.215-0.26,1.474,1.474,0,0,0,.159-0.3,1.5,1.5,0,0,0,.1-0.32A1.669,1.669,0,0,0,847.094,9881.79Zm32.525,0a1.565,1.565,0,0,0-.1-0.32,1.794,1.794,0,0,0-.159-0.3,2.049,2.049,0,0,0-.217-0.26,2.188,2.188,0,0,0-.263-0.22,1.631,1.631,0,0,0-.3-0.15,1.265,1.265,0,0,0-.324-0.1,1.547,1.547,0,0,0-.677,0,1.253,1.253,0,0,0-.324.1,1.751,1.751,0,0,0-.3.15,2.45,2.45,0,0,0-.263.22,2.032,2.032,0,0,0-.215.26,1.794,1.794,0,0,0-.159.3,1.7,1.7,0,0,0-.1.32,1.717,1.717,0,0,0,0,.68,1.7,1.7,0,0,0,.1.32,1.474,1.474,0,0,0,.159.3,2.032,2.032,0,0,0,.215.26,2.45,2.45,0,0,0,.263.22,3.063,3.063,0,0,0,.3.16,1.787,1.787,0,0,0,.324.09,1.452,1.452,0,0,0,.677,0,1.809,1.809,0,0,0,.324-0.09,2.724,2.724,0,0,0,.3-0.16,2.113,2.113,0,0,0,.263-0.22,2.049,2.049,0,0,0,.217-0.26,1.474,1.474,0,0,0,.159-0.3,1.565,1.565,0,0,0,.1-0.32,1.7,1.7,0,0,0,.033-0.34A1.78,1.78,0,0,0,879.619,9881.79Zm20.189,2.61a1.73,1.73,0,0,0-2.332-.75,35.765,35.765,0,0,0-6.989,4.69l1.813-12.66a1.721,1.721,0,0,0-1.714-1.97H869.817l-0.666-3.66a11.878,11.878,0,1,0-14.985,0l-0.666,3.66H832.731a1.721,1.721,0,0,0-1.714,1.97l2.132,14.89a1.732,1.732,0,0,0-1.613,1.99l1.64,10.8a1.737,1.737,0,0,0,1.713,1.47h0.3l2.389,16.69A1.729,1.729,0,0,0,839.3,9923h44.727a1.729,1.729,0,0,0,1.715-1.48l2.389-16.69h0.3a1.737,1.737,0,0,0,1.713-1.47l1.64-10.8a1.766,1.766,0,0,0-.039-0.71,32.541,32.541,0,0,1,7.316-5.13A1.719,1.719,0,0,0,899.808,9884.4Zm-46.563-23.55a8.414,8.414,0,1,1,13.052,7.01,1.709,1.709,0,0,0-.748,1.74l0.747,4.1h-9.275l0.747-4.1a1.709,1.709,0,0,0-.748-1.74A8.4,8.4,0,0,1,853.245,9860.85Zm-16.552,40.52h-0.314l-1.116-7.35h49.922a35.44,35.44,0,0,0-4.2,7.35H836.693Zm43.046,3.46c-0.237.78-.447,1.57-0.632,2.38H876.66l0.31-2.38h2.769Zm-6.262,0-0.311,2.38H863.39v-2.38h10.087Zm-32.68,14.71-2.107-14.71h7.646l1.151,9.51a1.736,1.736,0,0,0,1.717,1.52c0.07,0,.14-0.01.21-0.01a1.737,1.737,0,0,0,1.512-1.93l-1.1-9.09h10.1v3.24a1.709,1.709,0,0,0-.234.87v2.5a11.24,11.24,0,0,0,3.434,8.1H840.8Zm38.121-8.1a7.881,7.881,0,0,1-15.762,0v-0.78h15.762v0.78h0Zm3.6,8.1h-3.572a11.243,11.243,0,0,0,3.434-8.1v-2.5a1.731,1.731,0,0,0-.035-0.35,31.833,31.833,0,0,1,1.031-3.76h1.249Zm4.418-18.17h-2.155a31.893,31.893,0,0,1,2.9-4.9Zm-0.269-10.8h-7.962l0.406-3.35a1.733,1.733,0,0,0-3.44-.42l-0.455,3.77H863.39v-4.12a1.732,1.732,0,0,0-3.464,0v4.12H848.1l-0.456-3.77a1.732,1.732,0,0,0-3.439.42l0.405,3.35h-7.961l-1.919-13.41h53.859Zm-25.01-35.65a6.02,6.02,0,1,0,6.033,6.02A6.034,6.034,0,0,0,861.659,9854.92Zm0,8.59a2.565,2.565,0,1,1,2.57-2.57A2.571,2.571,0,0,1,861.658,9863.51Z" transform="translate(-831 -9849)"/>
</svg>
