<svg xmlns="http://www.w3.org/2000/svg" width="17.031" height="9.594" viewBox="0 0 17.031 9.594">
  <defs>
    <style>
      .cls-1 {
        fill: #b2b2b2;
        fill-rule: evenodd;
      }
    </style>
  </defs>
  <path id="vk_-_international" data-name="vk - international" class="cls-1" d="M640.13,66.656h1.017a0.871,0.871,0,0,0,.465-0.2,0.717,0.717,0,0,0,.14-0.436s-0.02-1.348.613-1.543,1.427,1.288,2.278,1.857a1.572,1.572,0,0,0,1.131.322h2.274s1.19-.088.626-1a7.568,7.568,0,0,0-1.691-1.908c-1.426-1.292-1.235-1.083.483-3.318,1.046-1.362,1.464-2.193,1.333-2.548a1.029,1.029,0,0,0-.888-0.282h-2.566a0.656,0.656,0,0,0-.33.065,0.708,0.708,0,0,0-.226.289,14.031,14.031,0,0,1-.946,1.968c-1.14,1.891-1.6,1.993-1.782,1.874-0.434-.274-0.325-1.1-0.325-1.686,0-1.832.284-2.6-.555-2.792a4.378,4.378,0,0,0-1.2-.118,5.674,5.674,0,0,0-2.124.213c-0.291.14-.516,0.449-0.379,0.469a1.161,1.161,0,0,1,.756.369,2.367,2.367,0,0,1,.253,1.131s0.151,2.159-.352,2.428c-0.345.182-.819-0.2-1.835-1.909a15.231,15.231,0,0,1-.914-1.869,0.743,0.743,0,0,0-.211-0.277,1.114,1.114,0,0,0-.393-0.157h-2.433a0.856,0.856,0,0,0-.5.166,0.51,0.51,0,0,0-.009.425s1.9,4.383,4.061,6.576A5.976,5.976,0,0,0,640.13,66.656Z" transform="translate(-631.813 -57.188)"/>
</svg>
