<?xml version="1.0" encoding="UTF-8" standalone="no"?>
<svg width="14px" height="12px" viewBox="0 0 14 12" version="1.1" xmlns="http://www.w3.org/2000/svg" xmlns:xlink="http://www.w3.org/1999/xlink">
    <!-- Generator: sketchtool 40.3 (33839) - http://www.bohemiancoding.com/sketch -->
    <title>4BDB7DDC-5286-4A1B-999C-FED2339100A8</title>
    <desc>Created with sketchtool.</desc>
    <defs></defs>
    <g id="Page-1" stroke="none" stroke-width="1" fill="none" fill-rule="evenodd">
        <g id="Main" transform="translate(-1220.000000, -3456.000000)" fill="#737373">
            <g id="Footer" transform="translate(41.000000, 3311.000000)">
                <g id="Social-Icons" transform="translate(1059.000000, 131.000000)">
                    <path d="M133.613863,14.2156837 C133.058393,14.5528529 132.444611,14.7980669 131.788588,14.9292714 C131.266013,14.3573546 130.519157,14 129.692308,14 C128.107388,14 126.821136,15.3187729 126.821136,16.9451846 C126.821136,17.1761942 126.845807,17.4001015 126.895149,17.6157851 C124.50805,17.4928043 122.391958,16.3216832 120.974501,14.537527 C120.727045,14.9741276 120.585747,15.4806291 120.585747,16.0200251 C120.585747,17.0412517 121.092623,17.9428617 121.863776,18.4710437 C121.393533,18.4568392 120.94983,18.3230182 120.561824,18.1039703 L120.561824,18.1398553 C120.561824,19.5674045 121.552025,20.7583371 122.86706,21.0278482 C122.626332,21.0970016 122.372146,21.1317651 122.110111,21.1317651 C121.925079,21.1317651 121.744533,21.1138227 121.569594,21.0794329 C121.935172,22.2490588 122.995274,23.1009532 124.25237,23.1237551 C123.269645,23.9139722 122.030492,24.3849625 120.685179,24.3849625 C120.453422,24.3849625 120.224281,24.3715056 120,24.3445919 C121.270926,25.1789176 122.781459,25.666729 124.403012,25.666729 C129.686701,25.666729 132.575067,21.1796118 132.575067,17.2872133 C132.575067,17.1589993 132.572825,17.0311591 132.567965,16.9055616 C133.129042,16.4902678 133.616479,15.9718047 134,15.3811978 C133.485649,15.6151977 132.931674,15.7736897 132.350786,15.844712 C132.94401,15.4806291 133.3993,14.903479 133.613863,14.2156837" id="Twitter"></path>
                </g>
            </g>
        </g>
    </g>
</svg>