<svg xmlns="http://www.w3.org/2000/svg" width="10.062" height="16" viewBox="0 0 10.062 16">
  <defs>
    <style>
      .cls-1 {
        fill: #b2b2b2;
        fill-rule: evenodd;
      }
    </style>
  </defs>
  <path id="odnoklasniki" class="cls-1" d="M682,54a3.986,3.986,0,1,1-4.094,3.984A4.04,4.04,0,0,1,682,54Zm0,2.312a1.672,1.672,0,1,1-1.688,1.672A1.68,1.68,0,0,1,682,56.313Zm0,6.892a4.308,4.308,0,0,0,2.8-.674,1.463,1.463,0,0,1,2.1.337s0.894,2-2.447,2.359c0,0-.494.049-0.349,0.337s2.309,2.155,2.446,2.7a0.947,0.947,0,0,1-.349,1.349c-0.714.659-1.276,0.5-2.447-.674S682,67.249,682,67.249V63.2Zm0,0a4.307,4.307,0,0,1-2.8-.674,1.463,1.463,0,0,0-2.1.337s-0.894,2,2.447,2.359c0,0,.493.049,0.349,0.337s-2.309,2.155-2.446,2.7a0.946,0.946,0,0,0,.349,1.349c0.714,0.659,1.276.5,2.447-.674S682,67.249,682,67.249V63.2Z" transform="translate(-676.969 -54)"/>
</svg>
